<svg width="160" height="124" viewBox="0 0 160 124" fill="none" xmlns="http://www.w3.org/2000/svg">
<path d="M20.415 55.7524C20.415 55.7524 25.5284 31.7988 38.3959 31.7988C51.2635 31.7988 58.1075 69.4553 26.8095 73.5511L20.415 55.7524Z" fill="#F4A28C"/>
<path d="M20.415 55.7524C20.415 55.7524 25.5284 31.7988 38.3959 31.7988C51.2635 31.7988 58.1075 69.4553 26.8095 73.5511L20.415 55.7524Z" fill="#FFB8B8"/>
<path d="M111.275 5.94141H31.2207V104.799H111.275V5.94141Z" fill="#1E2538"/>
<path d="M103.238 11.9395H38.9678V96.5127H103.238V11.9395Z" fill="white"/>
<path d="M89.1803 0H54.1738V14.7996H89.1803V0Z" fill="#FFA700"/>
<path opacity="0.21" d="M83.6333 49.877H67.7539V53.3628H83.6333V49.877Z" fill="#A8A8A8"/>
<path opacity="0.21" d="M92.9103 56.8027H67.7539V60.2886H92.9103V56.8027Z" fill="#A8A8A8"/>
<path opacity="0.21" d="M83.6333 72.291H67.7539V75.7769H83.6333V72.291Z" fill="#A8A8A8"/>
<path opacity="0.21" d="M92.9103 79.2246H67.7539V82.7105H92.9103V79.2246Z" fill="#A8A8A8"/>
<path d="M61.488 25.5137H47.1426V39.7985H61.488V25.5137Z" fill="#60B158"/>
<path d="M61.488 47.8008H47.1426V62.0856H61.488V47.8008Z" fill="#60B158"/>
<path d="M61.488 70.0859H47.1426V84.3708H61.488V70.0859Z" fill="#60B158"/>
<path d="M51.9707 32.6369L53.662 35.0933L57.1683 30.5723" stroke="white" stroke-width="4" stroke-linecap="round" stroke-linejoin="round"/>
<path d="M51.9707 54.8906L53.662 57.3469L57.1683 52.8203" stroke="white" stroke-width="4" stroke-linecap="round" stroke-linejoin="round"/>
<path opacity="0.1" d="M72.8344 71.117L70.7217 74.7763L77.8354 73.8755L85.3761 71.145C85.3761 71.145 89.2364 77.2998 95.6983 80.948C102.827 84.8447 108.301 91.1759 111.111 98.7746L111.291 99.2726V65.1412L101.39 54.8066L72.8344 71.117Z" fill="black"/>
<path d="M51.9707 77.3069L53.662 79.7632L57.1683 75.2422" stroke="white" stroke-width="4" stroke-linecap="round" stroke-linejoin="round"/>
<path d="M110.2 52.9527C110.2 52.9527 102.12 45.7403 90.1568 50.7145C80.7898 54.6313 85.2232 59.2362 90.2579 59.0404C95.2925 58.8445 103.744 55.4258 103.154 63.7516C102.62 71.0871 93.4832 60.5399 88.2463 60.954C83.0093 61.368 83.6106 67.2935 90.0612 70.5443C96.5119 73.7952 105.57 80.8341 112.622 75.3059C119.674 69.7778 117.656 59.958 110.2 52.9527Z" fill="#FFB8B8"/>
<path d="M123.043 49.0095L120.556 43.8555L75.3504 65.4905L77.838 70.6445L123.043 49.0095Z" fill="#007AFF"/>
<path d="M108.088 77.365L136.38 123.23L159.463 103.607L118.865 63.8691L108.088 77.365Z" fill="#1E2538"/>
<path d="M75.3464 65.4941L69.3115 71.6937L77.8356 70.6474L75.3464 65.4941Z" fill="#FF6961"/>
<path d="M30.4942 46.8282C30.4942 46.8282 40.4286 36.7175 44.7159 37.6128C48.2559 38.3569 48.2615 45.3679 40.5466 51.2094C38.9804 52.382 37.6856 53.8762 36.7501 55.5908C35.8145 57.3053 35.2601 59.2001 35.1243 61.1466C34.9051 64.4087 33.8206 68.2919 30.4942 71.2182C23.4985 77.3731 18.3065 72.0127 18.9808 63.6869C19.6551 55.3611 20.1102 52.8992 30.4942 46.8282Z" fill="#FFB8B8"/>
<path d="M34.3603 69.8959L30.6237 121.345L0 115.498L15.4017 64.1719L34.3603 69.8959Z" fill="#1E2538"/>
<path opacity="0.21" d="M83.6333 27.084H67.7539V30.5699H83.6333V27.084Z" fill="#A8A8A8"/>
<path opacity="0.21" d="M92.9103 34.0156H67.7539V37.5015H92.9103V34.0156Z" fill="#A8A8A8"/>
<path d="M18.6729 119.063L25.3089 67.166L34.3612 69.8965L30.6245 121.345L18.6729 119.063Z" fill="#3A435A"/>
<path d="M108.088 77.3672L113.078 71.1172L146.589 114.554L136.38 123.232L108.088 77.3672Z" fill="#3A435A"/>
</svg>
