<svg xmlns="http://www.w3.org/2000/svg" width="306" height="231" viewBox="0 0 306 231" fill="none">
<path d="M0 203.484H306V203.637H0" fill="#D1E3FF"/>
<path d="M90.2272 211.16H31.6099V211.312H90.2272V211.16Z" fill="#D1E3FF"/>
<path d="M64.7677 208.113H50.7529V208.266H64.7677V208.113Z" fill="#D1E3FF"/>
<path d="M167.621 208.562H139.848V208.715H167.621V208.562Z" fill="#D1E3FF"/>
<path d="M263.368 209.605H233.588V209.758H263.368V209.605Z" fill="#D1E3FF"/>
<path d="M106.812 211.16H96.1514V211.312H106.812V211.16Z" fill="#D1E3FF"/>
<path d="M272.701 209.605H268.362V209.758H272.701V209.605Z" fill="#D1E3FF"/>
<path d="M145.05 176.314H26.8788C24.951 176.314 23.3843 174.754 23.3843 172.835V7.48621C23.3843 5.56731 24.951 4.00781 26.8788 4.00781H145.056C146.984 4.00781 148.551 5.56731 148.551 7.48621V172.835C148.544 174.754 146.978 176.314 145.05 176.314ZM26.8788 4.1662C25.0367 4.1662 23.5373 5.65868 23.5373 7.49231V172.841C23.5373 174.675 25.0367 176.167 26.8788 176.167H145.056C146.898 176.167 148.398 174.675 148.398 172.841V7.48621C148.398 5.65259 146.898 4.16011 145.056 4.16011H26.8788V4.1662Z" fill="#D1E3FF"/>
<path d="M277.426 176.314H159.248C157.321 176.314 155.754 174.754 155.754 172.835V7.48621C155.754 5.56731 157.321 4.00781 159.248 4.00781H277.426C279.353 4.00781 280.92 5.56731 280.92 7.48621V172.835C280.92 174.754 279.353 176.314 277.426 176.314ZM159.248 4.1662C157.406 4.1662 155.907 5.65868 155.907 7.49231V172.841C155.907 174.675 157.406 176.167 159.248 176.167H277.426C279.268 176.167 280.767 174.675 280.767 172.841V7.48621C280.767 5.65259 279.268 4.16011 277.426 4.16011H159.248V4.1662Z" fill="#D1E3FF"/>
<path d="M258.894 15.3945H175.491V112.132H258.894V15.3945Z" fill="#D1E3FF"/>
<path d="M261.159 15.3945H176.55V112.132H261.159V15.3945Z" fill="#F3F8FF"/>
<path d="M258.894 112.125H175.491V117.547H258.894V112.125Z" fill="#D1E3FF"/>
<path d="M271.526 112.125H191.874V117.547H271.526V112.125Z" fill="#F3F8FF"/>
<path d="M257.989 108.024V19.4922L179.727 19.4922V108.024L257.989 108.024Z" fill="#F5FCFF"/>
<path d="M190.987 108.028L209.61 19.4961H234.029L215.399 108.028H190.987Z" fill="white"/>
<path d="M219.353 108.028L237.976 19.4961H249.004L230.381 108.028H219.353Z" fill="white"/>
<path d="M257.985 98.758V18.9375H257.581V98.758H257.985Z" fill="#D1E3FF"/>
<path d="M173.11 15.2545V49.6974H182.266C182.266 49.6974 198.716 39.0185 202.449 17.0516C202.829 14.822 201.115 12.7813 198.839 12.7813H175.601C174.224 12.7752 173.11 13.8839 173.11 15.2545Z" fill="#D1E3FF"/>
<path d="M173.11 104.908V52.4766H182.266C182.266 52.4766 187.529 63.058 192.78 75.2354C198.832 89.277 188.465 104.908 173.11 104.908Z" fill="#D1E3FF"/>
<path d="M181.996 52.4753H173.447C172.939 52.4753 172.529 52.0672 172.529 51.5616V50.6052C172.529 50.0996 172.939 49.6914 173.447 49.6914H181.996C182.504 49.6914 182.914 50.0996 182.914 50.6052V51.5616C182.914 52.0672 182.498 52.4753 181.996 52.4753Z" fill="#F3F8FF"/>
<path d="M263.753 15.2545V49.6974H254.598C254.598 49.6974 238.147 39.0185 234.414 17.0516C234.035 14.822 235.748 12.7813 238.025 12.7813H261.263C262.64 12.7752 263.753 13.8839 263.753 15.2545Z" fill="#D1E3FF"/>
<path d="M263.753 104.908V52.4766H254.598C254.598 52.4766 249.335 63.058 244.084 75.2354C238.031 89.277 248.398 104.908 263.753 104.908Z" fill="#D1E3FF"/>
<path d="M254.867 52.4753H263.417C263.925 52.4753 264.335 52.0672 264.335 51.5616V50.6052C264.335 50.0996 263.925 49.6914 263.417 49.6914H254.867C254.359 49.6914 253.949 50.0996 253.949 50.6052V51.5616C253.949 52.0672 254.359 52.4753 254.867 52.4753Z" fill="#F3F8FF"/>
<path d="M61.0285 69.6939C49.9329 69.6939 40.9365 60.739 40.9365 49.6946C40.9365 38.6502 49.9329 29.6953 61.0285 29.6953H62.2647V69.7H61.0285V69.6939Z" fill="#D1E3FF"/>
<path d="M76.4697 63.829C84.316 56.0189 84.316 43.3561 76.4697 35.546C68.6234 27.7359 55.902 27.7359 48.0557 35.546C40.2093 43.3561 40.2093 56.0189 48.0557 63.829C55.902 71.6391 68.6234 71.6391 76.4697 63.829Z" fill="#F3F8FF"/>
<path d="M62.2649 64.7719C70.6338 64.7719 77.4181 58.0189 77.4181 49.6887C77.4181 41.3585 70.6338 34.6055 62.2649 34.6055C53.8961 34.6055 47.1118 41.3585 47.1118 49.6887C47.1118 58.0189 53.8961 64.7719 62.2649 64.7719Z" fill="white"/>
<path d="M68.5314 55.2913L61.1201 50.1438L63.4702 38.7461L65.4898 39.1603L63.4151 49.2361L69.7126 53.61L68.5314 55.2913Z" fill="#D1E3FF"/>
<path d="M159.255 118.746H132.994V203.483H159.255V118.746Z" fill="#D1E3FF"/>
<path d="M152.241 203.481H159.255V191.785H144.885L152.241 203.481Z" fill="#F3F8FF"/>
<path d="M58.195 118.746H31.9341V203.483H58.195V118.746Z" fill="#D1E3FF"/>
<path d="M159.255 118.746H52.0752V199.456H159.255V118.746Z" fill="#F3F8FF"/>
<path d="M59.0826 203.481H52.0752V191.785H66.4388L59.0826 203.481Z" fill="#F3F8FF"/>
<path d="M153.814 148.82H57.5156V169.021H153.814V148.82Z" fill="#E3EEFF"/>
<path d="M153.814 173.34H57.5156V193.54H153.814V173.34Z" fill="#E3EEFF"/>
<path d="M139.383 150.985H71.9408C69.7743 150.985 68.0117 149.237 68.0117 147.074H143.306C143.312 149.237 141.55 150.985 139.383 150.985Z" fill="#F3F8FF"/>
<path d="M153.814 124.309H57.5156V144.509H153.814V124.309Z" fill="#E3EEFF"/>
<path d="M139.383 126.469H71.9408C69.7743 126.469 68.0117 124.721 68.0117 122.559H143.306C143.312 124.715 141.55 126.469 139.383 126.469Z" fill="#F3F8FF"/>
<path d="M139.383 175.497H71.9408C69.7743 175.497 68.0117 173.749 68.0117 171.586H143.306C143.312 173.749 141.55 175.497 139.383 175.497Z" fill="#F3F8FF"/>
<path d="M253.001 203.482H199.959L195.626 142.723H248.668L253.001 203.482Z" fill="#D1E3FF"/>
<path d="M259.023 203.482H201.599L197.266 142.723H254.69L259.023 203.482Z" fill="#EEF9FF"/>
<path d="M206.073 198.695L202.419 147.512H250.216L253.87 198.695H206.073Z" fill="white"/>
<path d="M239.267 183.787C244.788 178.093 244.286 168.695 238.145 162.795C232.004 156.895 222.551 156.728 217.03 162.422C211.509 168.115 212.011 177.513 218.151 183.413C224.292 189.313 233.746 189.48 239.267 183.787Z" fill="#EEF9FF"/>
<path d="M102.994 62.5983C105.674 64.7792 109.377 68.7693 112.773 74.3859C115.032 78.1262 116.396 82.0432 116.996 87.2213C116.984 81.361 116.966 75.0621 116.947 69.1226C116.268 67.5936 114.707 64.0664 113.593 61.2825C109.866 51.9925 108.483 49.7081 105.129 41.6914C100.662 31.0003 96.078 18.3172 97.3938 19.3345C100.068 21.3997 110.307 40.4852 111.415 43.2204C115.221 52.62 116.28 59.4671 116.941 66.0767C116.923 60.4967 116.898 55.3735 116.88 51.4138C116.813 38.5175 116.592 34.3508 116.482 33.0715C116.066 32.4197 115.576 31.6582 115.295 31.2501C112.89 27.7899 111.959 24.8415 109.695 19.6757C106.482 12.3595 103.716 -0.628187 104.524 0.0236328C107.89 2.75275 110.546 8.61912 114.034 16.0876C117.522 23.5622 116.525 27.8569 117.216 34.2411C117.363 35.496 117.474 40.2232 117.553 46.7719C118.459 39.7907 120.154 35.1914 123.251 31.0125C127.064 25.871 130.748 22.3987 133.453 20.5834C136.158 18.768 128.783 31.3963 125.258 36.9093C122.119 41.8193 119.224 46.1505 117.596 50.4148C117.682 59.2905 117.724 70.5359 117.724 81.0016C118.532 76.2378 119.854 71.1085 121.617 67.1367C123.734 62.3668 126.99 55.0445 129.585 52.5652C130.209 51.9682 126.874 66.2046 124.732 69.9876C122.59 73.7706 121.023 77.3404 119.677 79.4847C119.365 79.9842 118.318 81.9153 117.724 83.024C117.718 95.7985 117.651 107.074 117.541 110.912H116.984C117.021 109.919 117.027 103.425 117.015 94.8238C115.68 90.1514 112.626 84.8211 110.105 79.9599C107.345 74.66 100.307 60.4175 102.994 62.5983Z" fill="#D1E3FF"/>
<path d="M109.223 118.746H125.27L126.482 103.09H108.012L109.223 118.746Z" fill="#E3EEFF"/>
<path d="M106.812 104.917H127.675L128.275 99.6289H106.219L106.812 104.917Z" fill="#E3EEFF"/>
<path d="M153 230.995C218.535 230.995 271.661 227.907 271.661 224.099C271.661 220.291 218.535 217.203 153 217.203C87.4655 217.203 34.3394 220.291 34.3394 224.099C34.3394 227.907 87.4655 230.995 153 230.995Z" fill="#F0F6FF"/>
<path d="M106.708 218.974H102.222L101.775 208.637H106.261L106.708 218.974Z" fill="#E1A6A0"/>
<path d="M133.63 218.974H129.144L126.892 208.637H131.378L133.63 218.974Z" fill="#E1A6A0"/>
<path d="M128.826 218.457H133.863C134.046 218.457 134.205 218.585 134.242 218.762L135.129 222.727C135.221 223.142 134.897 223.525 134.475 223.519C132.718 223.489 131.861 223.385 129.646 223.385C128.281 223.385 125.472 223.525 123.593 223.525C121.751 223.525 121.463 221.673 122.235 221.503C125.692 220.754 126.99 219.712 128.098 218.725C128.3 218.555 128.557 218.457 128.826 218.457Z" fill="#14365B"/>
<path d="M102.253 218.457H107.149C107.332 218.457 107.492 218.585 107.528 218.762L108.416 222.727C108.507 223.142 108.195 223.525 107.773 223.519C106.004 223.489 103.452 223.385 101.237 223.385C98.642 223.385 96.396 223.525 93.3543 223.525C91.5122 223.525 91.0043 221.673 91.7754 221.503C95.2822 220.741 98.1463 220.656 101.176 218.798C101.5 218.603 101.867 218.457 102.253 218.457Z" fill="#14365B"/>
<path d="M98.9542 73.1319L92.9076 70.75C92.9076 70.75 85.9431 84.9012 83.7521 85.6139C80.7717 86.5886 74.6456 89.2873 70.943 89.7929C70.4717 90.3777 69.7557 92.2235 69.872 92.8997C74.9822 94.5627 85.8574 92.3575 88.1096 90.6153C93.2442 86.6434 98.9542 73.1319 98.9542 73.1319Z" fill="#E1A6A0"/>
<path d="M100.582 69.9202C102.094 73.9164 94.4375 85.6735 94.4375 85.6735L85.4717 80.8244C85.4717 80.8244 87.5647 74.9581 90.6553 70.377C93.8255 65.6681 98.9234 65.5341 100.582 69.9202Z" fill="#9FC6FF"/>
<path d="M100.717 70.4283C98.9601 69.5999 96.9895 70.2943 95.0066 73.59C93.0543 76.8552 91.4264 82.3987 91.2856 83.9703L94.4374 85.67C94.4374 85.6761 101.506 74.8144 100.717 70.4283Z" fill="#77B3FC"/>
<path d="M71.6955 89.7526L66.6404 87.6875L64.9268 93.1274C64.9268 93.1274 67.8032 93.6391 71.0284 93.1274L71.6955 89.7526Z" fill="#E1A6A0"/>
<path d="M62.9624 87.5508L63.0481 91.1693L64.9269 93.1247L66.6405 87.6848L62.9624 87.5508Z" fill="#E1A6A0"/>
<path d="M101.775 208.645L102.008 213.969H106.494L106.261 208.645H101.775Z" fill="#9E4541"/>
<path d="M131.378 208.645H126.892L128.055 213.969H132.541L131.378 208.645Z" fill="#9E4541"/>
<path d="M95.2575 66.8638C95.2575 66.8638 89.9637 80.3388 94.9943 105.443C102.222 105.443 115.46 105.443 118.979 105.443C119.144 101.776 116.83 83.9025 120.38 66.6323C120.38 66.6323 116.267 65.8099 112.351 65.6211C109.285 65.4749 104.847 65.3774 102.155 65.6211C98.6051 65.95 95.2575 66.8638 95.2575 66.8638Z" fill="#9FC6FF"/>
<path d="M115.166 70.8951C114.768 73.7339 115.668 80.5384 118.385 88.3907C118.391 82.3416 118.759 75.336 120.044 68.3488V68.3122C118.465 68.1599 115.552 68.233 115.166 70.8951Z" fill="#77B3FC"/>
<path d="M100.607 65.8055C101.108 65.7385 101.629 65.6776 102.155 65.6289C104.848 65.3852 109.285 65.4827 112.351 65.6289C112.779 65.6533 113.208 65.6776 113.636 65.7142L113.489 66.0797C113.422 66.2442 111.788 70.1612 104.94 70.1612C104.04 70.1612 101.317 70.1612 100.46 68.3336C100.031 67.4199 100.282 66.4817 100.607 65.8055Z" fill="white"/>
<path d="M111.016 56.1367C110.374 59.4019 110.056 63.4468 112.351 65.6277C112.351 65.6277 111.035 68.9416 104.939 68.9416C99.37 68.9416 102.155 65.6277 102.155 65.6277C105.814 64.7566 105.625 60.2548 104.982 57.7206L111.016 56.1367Z" fill="#E1A6A0"/>
<path d="M110.588 59.1716L106.267 57.3867L105.71 57.5329C105.79 58.0995 106.041 58.9097 106.39 59.7138C107.002 61.0905 109.229 62.9972 110.974 63.3628C110.557 62.0957 110.484 60.6336 110.588 59.1716Z" fill="#D8948D"/>
<path d="M117.143 56.7866C116.347 57.6821 115.209 58.1268 114.23 58.1695C112.749 58.2365 112.339 56.8354 113.03 55.617C113.654 54.5205 115.172 53.162 116.525 53.6737C117.853 54.1793 118.049 55.7632 117.143 56.7866Z" fill="#D8948D"/>
<path d="M116.414 46.5125C118.428 47.804 118.556 54.0724 115.533 54.9922C112.51 55.906 112.602 44.0697 116.414 46.5125Z" fill="#0F264C"/>
<path d="M104.878 49.7267C104.389 54.131 103.881 56.6835 105.698 59.2968C108.44 63.2321 114.187 62.1661 115.986 57.9993C117.608 54.2468 118.134 47.6798 114.15 45.2066C110.233 42.7759 105.368 45.3284 104.878 49.7267Z" fill="#E1A6A0"/>
<path d="M104.144 52.4386C105.331 53.0295 106.794 50.1724 107.1 47.157C109.107 49.0515 120.564 48.8139 118.832 46.0727C116.151 41.8389 106.396 40.8946 104.872 43.703C102.087 43.8248 101.457 51.0984 104.144 52.4386Z" fill="#0F264C"/>
<path d="M102.069 54.1922C102.516 55.3009 103.434 56.0989 104.346 56.4705C105.717 57.0309 106.574 55.8491 106.335 54.4663C106.121 53.2236 105.148 51.4387 103.697 51.4691C102.277 51.4996 101.555 52.9251 102.069 54.1922Z" fill="#D8948D"/>
<path d="M94.9944 105.444C94.9944 105.444 94.3763 138.814 94.8659 152.423C95.3738 166.581 100.343 212.933 100.343 212.933H107.938C107.938 212.933 108.22 167.403 108.556 153.502C108.924 138.345 110.766 105.438 110.766 105.438H94.9944V105.444Z" fill="#407BFF"/>
<path d="M108.434 210.625C108.471 210.625 108.434 213.098 108.434 213.098H99.6763L99.3091 210.32L108.434 210.625Z" fill="#9FC6FF"/>
<path d="M105.484 114.277C105.631 130.835 106.635 140.898 108.691 148.982C108.954 141.081 109.45 130.64 109.891 121.965L105.484 114.277Z" fill="#2B6AD8"/>
<path d="M103.501 105.441C103.501 105.441 108.587 139.549 111.384 152.33C114.444 166.323 125.968 212.937 125.968 212.937H134.181C134.181 212.937 126.58 167.456 124.836 153.597C122.939 138.562 118.979 105.441 118.979 105.441H103.501Z" fill="#407BFF"/>
<path d="M134.181 210.806C134.218 210.806 134.591 213.09 134.591 213.09H125.564L124.762 210.465L134.181 210.806Z" fill="#9FC6FF"/>
<path d="M130.87 208.108C130.833 208.108 130.803 208.084 130.797 208.047C130.729 207.633 123.875 166.568 122.302 154.123C120.601 140.617 117.014 110.664 116.978 110.359C116.971 110.317 117.002 110.28 117.045 110.274C117.082 110.268 117.124 110.299 117.131 110.341C117.167 110.64 120.754 140.593 122.455 154.098C124.022 166.544 130.876 207.602 130.95 208.017C130.956 208.059 130.925 208.096 130.888 208.102C130.876 208.108 130.876 208.108 130.87 208.108Z" fill="#2B6AD8"/>
<path d="M111.31 52.0907C111.249 52.444 111.39 52.7669 111.622 52.8034C111.855 52.84 112.094 52.5902 112.155 52.2369C112.216 51.8836 112.075 51.5607 111.843 51.5242C111.61 51.4815 111.371 51.7374 111.31 52.0907Z" fill="#0F264C"/>
<path d="M115.337 52.787C115.276 53.1404 115.417 53.4632 115.649 53.4998C115.882 53.5424 116.121 53.2866 116.182 52.9272C116.243 52.5677 116.102 52.251 115.87 52.2144C115.637 52.1779 115.399 52.4337 115.337 52.787Z" fill="#0F264C"/>
<path d="M114.022 52.7422C114.022 52.7422 114.474 54.9291 115.197 56.0683C114.462 56.5434 113.44 56.0927 113.44 56.0927L114.022 52.7422Z" fill="#D8948D"/>
<path d="M112.235 56.8928C112.29 56.905 112.345 56.8623 112.357 56.8075C112.369 56.7527 112.326 56.6979 112.271 56.6857C110.705 56.4176 110.166 55.2054 110.16 55.1932C110.135 55.1383 110.074 55.114 110.019 55.1384C109.964 55.1627 109.94 55.2236 109.964 55.2785C109.989 55.3333 110.558 56.6065 112.235 56.8928Z" fill="#0F264C"/>
<path d="M110.319 50.5875C110.38 50.5997 110.447 50.5814 110.502 50.5327C111.194 49.887 111.959 50.0636 111.965 50.0697C112.069 50.1002 112.192 50.0271 112.222 49.9174C112.253 49.8017 112.179 49.692 112.069 49.6616C112.026 49.6494 111.078 49.4301 110.215 50.2281C110.129 50.3073 110.123 50.4413 110.203 50.5266C110.233 50.5632 110.276 50.5814 110.319 50.5875Z" fill="#0F264C"/>
<path d="M117.394 51.6764C117.424 51.6825 117.455 51.6764 117.485 51.6642C117.596 51.6277 117.651 51.5058 117.614 51.3962C117.216 50.2936 116.268 50.056 116.225 50.0499C116.115 50.0194 115.998 50.0925 115.968 50.2083C115.943 50.324 116.01 50.4337 116.127 50.4641C116.157 50.4702 116.898 50.6652 117.216 51.5424C117.241 51.6155 117.314 51.6703 117.394 51.6764Z" fill="#0F264C"/>
<path d="M121.659 69.6484L116.255 73.2548C116.255 73.2548 124.016 86.9917 123.367 89.1908C122.479 92.188 121.243 98.7427 119.56 102.063C119.78 102.782 120.9 104.42 121.525 104.7C125.796 101.454 130.142 91.2864 129.976 88.4537C129.603 81.9904 121.659 69.6484 121.659 69.6484Z" fill="#E1A6A0"/>
<path d="M120.38 66.6377C124.621 67.253 129.481 81.8854 129.481 81.8854L120.57 86.8928C120.57 86.8928 116.647 79.936 114.713 74.7641C112.681 69.3485 115.827 65.9737 120.38 66.6377Z" fill="#9FC6FF"/>
<path d="M127.345 219.238C127.002 219.238 126.684 219.183 126.482 219.013C126.323 218.879 126.249 218.69 126.262 218.452C126.274 218.276 126.366 218.19 126.445 218.154C126.935 217.904 128.385 218.787 128.55 218.885C128.587 218.909 128.606 218.952 128.599 218.994C128.593 219.037 128.563 219.067 128.52 219.08C128.208 219.153 127.761 219.238 127.345 219.238ZM126.678 218.312C126.623 218.312 126.574 218.318 126.543 218.336C126.512 218.349 126.482 218.379 126.476 218.458C126.464 218.629 126.512 218.751 126.623 218.842C126.867 219.049 127.455 219.074 128.214 218.921C127.706 218.635 127.02 218.312 126.678 218.312Z" fill="#407BFF"/>
<path d="M128.495 219.081C128.477 219.081 128.459 219.075 128.447 219.069C127.981 218.819 127.088 217.838 127.18 217.345C127.198 217.253 127.265 217.101 127.516 217.07C127.682 217.052 127.835 217.095 127.969 217.205C128.489 217.631 128.6 218.916 128.6 218.971C128.606 219.008 128.581 219.044 128.551 219.069C128.532 219.075 128.514 219.081 128.495 219.081ZM127.59 217.272C127.571 217.272 127.559 217.272 127.541 217.278C127.4 217.296 127.388 217.357 127.388 217.381C127.333 217.674 127.902 218.417 128.367 218.764C128.312 218.386 128.171 217.637 127.841 217.363C127.755 217.302 127.675 217.272 127.59 217.272Z" fill="#407BFF"/>
<path d="M100.386 219.237C99.9395 219.237 99.5295 219.17 99.2969 218.963C99.1501 218.835 99.0827 218.659 99.1011 218.451C99.1133 218.324 99.1684 218.226 99.2786 218.171C99.8233 217.867 101.623 218.78 101.831 218.884C101.873 218.902 101.892 218.951 101.886 218.994C101.88 219.036 101.849 219.073 101.8 219.085C101.421 219.152 100.882 219.237 100.386 219.237ZM99.5785 218.311C99.4989 218.311 99.4255 218.324 99.3826 218.348C99.3398 218.372 99.3214 218.403 99.3153 218.464C99.3031 218.604 99.3459 218.719 99.4438 218.805C99.7192 219.048 100.46 219.091 101.445 218.927C100.821 218.634 100.001 218.311 99.5785 218.311Z" fill="#407BFF"/>
<path d="M101.775 219.078C101.763 219.078 101.745 219.072 101.733 219.072C101.194 218.828 100.117 217.866 100.203 217.36C100.221 217.244 100.307 217.092 100.6 217.068C100.815 217.043 101.017 217.104 101.188 217.25C101.757 217.72 101.879 218.92 101.886 218.968C101.892 219.005 101.873 219.041 101.843 219.066C101.818 219.072 101.8 219.078 101.775 219.078ZM100.686 217.269C100.668 217.269 100.643 217.269 100.625 217.275C100.435 217.293 100.423 217.366 100.417 217.397C100.368 217.701 101.096 218.457 101.647 218.786C101.592 218.432 101.427 217.713 101.053 217.409C100.937 217.317 100.821 217.269 100.686 217.269Z" fill="#407BFF"/>
<path d="M119.56 102.063L115.294 101.734L117.54 106.431C117.54 106.431 121.28 106.596 121.904 103.751L119.56 102.063Z" fill="#E1A6A0"/>
<path d="M111.831 103.873L114.07 108.027L117.541 106.431L115.294 101.734L111.831 103.873Z" fill="#E1A6A0"/>
<path d="M84.8596 223.983H78.8742L65.2939 77.9389L71.2181 77.3906L84.8596 223.983Z" fill="#55A4F2"/>
<path d="M96.8056 223.984H90.8325L77.1421 76.849L83.0662 76.3008L96.8056 223.984Z" fill="#55A4F2"/>
<path d="M90.8329 223.982H84.8597L71.2183 77.3898L77.1424 76.8477L90.8329 223.982Z" fill="#7CB4F7"/>
<path d="M75.8938 66.6328L70.5633 67.1262L65.2939 77.9392L83.0664 76.3005L75.8938 66.6328Z" fill="#DCE9FF"/>
<path d="M72.8156 62.4961L70.5635 67.1258L75.894 66.6324L72.8156 62.4961Z" fill="#7CB4F7"/>
<path d="M233.392 56.6465L226.446 55.8789C226.477 60.6244 226.018 65.3638 225.087 70.024L222.694 81.9822L229.641 82.7497L232.033 70.7916C232.964 66.1314 233.417 61.392 233.392 56.6465Z" fill="#FFA700"/>
<path d="M244.506 70.9023H137.253L123.96 223.982H231.213L244.506 70.9023Z" fill="#C5E1FF"/>
<path d="M231.868 216.398H124.621L123.96 223.983H231.213L231.868 216.398Z" fill="#7CB4F7"/>
<path d="M237.511 70.9023H130.264L116.971 223.982H224.224L237.511 70.9023Z" fill="white"/>
<path d="M224.879 216.398H117.626L116.971 223.983H224.224L224.879 216.398Z" fill="#9FC6FF"/>
<path d="M230.173 78.584H136.286C136.213 78.584 136.158 78.5292 136.158 78.4561C136.158 78.3829 136.213 78.3281 136.286 78.3281H230.173C230.247 78.3281 230.302 78.3829 230.302 78.4561C230.302 78.5292 230.247 78.584 230.173 78.584Z" fill="#9FC6FF"/>
<path d="M229.641 84.7324H135.754C135.68 84.7324 135.625 84.6776 135.625 84.6045C135.625 84.5314 135.68 84.4766 135.754 84.4766H229.641C229.714 84.4766 229.769 84.5314 229.769 84.6045C229.769 84.6776 229.714 84.7324 229.641 84.7324Z" fill="#9FC6FF"/>
<path d="M229.108 90.8769H135.221C135.148 90.8769 135.093 90.8221 135.093 90.749C135.093 90.6759 135.148 90.6211 135.221 90.6211H229.108C229.182 90.6211 229.237 90.6759 229.237 90.749C229.237 90.8221 229.182 90.8769 229.108 90.8769Z" fill="#9FC6FF"/>
<path d="M228.576 97.0254H134.689C134.615 97.0254 134.56 96.9706 134.56 96.8975C134.56 96.8244 134.615 96.7695 134.689 96.7695H228.576C228.649 96.7695 228.704 96.8244 228.704 96.8975C228.704 96.9645 228.643 97.0254 228.576 97.0254Z" fill="#9FC6FF"/>
<path d="M228.043 103.17H134.156C134.083 103.17 134.028 103.115 134.028 103.042C134.028 102.969 134.083 102.914 134.156 102.914H228.043C228.117 102.914 228.172 102.969 228.172 103.042C228.172 103.115 228.111 103.17 228.043 103.17Z" fill="#9FC6FF"/>
<path d="M227.505 109.318H133.624C133.55 109.318 133.495 109.264 133.495 109.19C133.495 109.117 133.55 109.062 133.624 109.062H227.511C227.584 109.062 227.639 109.117 227.639 109.19C227.639 109.264 227.578 109.318 227.505 109.318Z" fill="#9FC6FF"/>
<path d="M226.972 115.459H133.085C133.012 115.459 132.957 115.404 132.957 115.331C132.957 115.258 133.012 115.203 133.085 115.203H226.972C227.046 115.203 227.101 115.258 227.101 115.331C227.101 115.404 227.046 115.459 226.972 115.459Z" fill="#9FC6FF"/>
<path d="M226.44 121.604H132.553C132.479 121.604 132.424 121.549 132.424 121.476C132.424 121.402 132.479 121.348 132.553 121.348H226.44C226.513 121.348 226.568 121.402 226.568 121.476C226.568 121.549 226.513 121.604 226.44 121.604Z" fill="#9FC6FF"/>
<path d="M225.908 127.752H132.021C131.947 127.752 131.892 127.697 131.892 127.624C131.892 127.551 131.947 127.496 132.021 127.496H225.908C225.981 127.496 226.036 127.551 226.036 127.624C226.036 127.697 225.981 127.752 225.908 127.752Z" fill="#9FC6FF"/>
<path d="M225.375 133.896H131.488C131.415 133.896 131.36 133.842 131.36 133.769C131.36 133.695 131.415 133.641 131.488 133.641H225.375C225.449 133.641 225.504 133.695 225.504 133.769C225.504 133.842 225.442 133.896 225.375 133.896Z" fill="#9FC6FF"/>
<path d="M224.836 140.045H130.956C130.882 140.045 130.827 139.99 130.827 139.917C130.827 139.844 130.882 139.789 130.956 139.789H224.843C224.916 139.789 224.971 139.844 224.971 139.917C224.971 139.99 224.91 140.045 224.836 140.045Z" fill="#9FC6FF"/>
<path d="M224.304 146.189H130.417C130.344 146.189 130.289 146.135 130.289 146.062C130.289 145.988 130.344 145.934 130.417 145.934H224.304C224.377 145.934 224.433 145.988 224.433 146.062C224.433 146.135 224.377 146.189 224.304 146.189Z" fill="#9FC6FF"/>
<path d="M223.772 152.338H129.885C129.811 152.338 129.756 152.283 129.756 152.21C129.756 152.137 129.811 152.082 129.885 152.082H223.772C223.845 152.082 223.9 152.137 223.9 152.21C223.9 152.283 223.845 152.338 223.772 152.338Z" fill="#9FC6FF"/>
<path d="M223.239 158.482H129.352C129.279 158.482 129.224 158.428 129.224 158.355C129.224 158.281 129.279 158.227 129.352 158.227H223.239C223.313 158.227 223.368 158.281 223.368 158.355C223.368 158.428 223.306 158.482 223.239 158.482Z" fill="#9FC6FF"/>
<path d="M222.707 164.631H128.82C128.746 164.631 128.691 164.576 128.691 164.503C128.691 164.43 128.746 164.375 128.82 164.375H222.707C222.78 164.375 222.835 164.43 222.835 164.503C222.835 164.57 222.774 164.631 222.707 164.631Z" fill="#9FC6FF"/>
<path d="M222.168 170.775H128.287C128.214 170.775 128.159 170.721 128.159 170.647C128.159 170.574 128.214 170.52 128.287 170.52H222.174C222.248 170.52 222.303 170.574 222.303 170.647C222.303 170.714 222.241 170.775 222.168 170.775Z" fill="#9FC6FF"/>
<path d="M221.636 176.924H127.749C127.675 176.924 127.62 176.869 127.62 176.796C127.62 176.723 127.675 176.668 127.749 176.668H221.636C221.709 176.668 221.764 176.723 221.764 176.796C221.764 176.863 221.709 176.924 221.636 176.924Z" fill="#9FC6FF"/>
<path d="M221.103 183.068H127.216C127.143 183.068 127.088 183.014 127.088 182.94C127.088 182.867 127.143 182.812 127.216 182.812H221.103C221.177 182.812 221.232 182.867 221.232 182.94C221.232 183.007 221.177 183.068 221.103 183.068Z" fill="#9FC6FF"/>
<path d="M220.571 189.217H126.684C126.611 189.217 126.555 189.162 126.555 189.089C126.555 189.016 126.611 188.961 126.684 188.961H220.571C220.644 188.961 220.699 189.016 220.699 189.089C220.699 189.156 220.644 189.217 220.571 189.217Z" fill="#9FC6FF"/>
<path d="M220.038 195.361H126.151C126.078 195.361 126.023 195.306 126.023 195.233C126.023 195.16 126.078 195.105 126.151 195.105H220.038C220.112 195.105 220.167 195.16 220.167 195.233C220.167 195.306 220.106 195.361 220.038 195.361Z" fill="#9FC6FF"/>
<path d="M219.5 201.51H125.619C125.546 201.51 125.49 201.455 125.49 201.382C125.49 201.309 125.546 201.254 125.619 201.254H219.506C219.579 201.254 219.634 201.309 219.634 201.382C219.634 201.449 219.573 201.51 219.5 201.51Z" fill="#9FC6FF"/>
<path d="M218.967 207.658H125.08C125.007 207.658 124.952 207.603 124.952 207.53C124.952 207.457 125.007 207.402 125.08 207.402H218.967C219.041 207.402 219.096 207.457 219.096 207.53C219.096 207.597 219.041 207.658 218.967 207.658Z" fill="#9FC6FF"/>
<path d="M208.937 213.201C208.937 213.201 208.931 213.201 208.937 213.201C208.894 213.201 208.869 213.165 208.869 213.134L220.889 74.6742C220.889 74.6376 220.92 74.6194 220.956 74.6133C220.993 74.6194 221.018 74.6498 221.018 74.6803L208.998 213.14C208.998 213.177 208.967 213.201 208.937 213.201Z" fill="#0053CC"/>
<path d="M218.618 54.8633H211.629C212.186 59.5783 212.26 64.3421 211.85 69.0693L210.797 81.2163H217.786L218.839 69.0693C219.249 64.336 219.175 59.5783 218.618 54.8633Z" fill="#60B158"/>
<path d="M157.51 83.6458C157.492 83.6458 157.48 83.6458 157.461 83.6397C157.4 83.6214 157.363 83.5666 157.357 83.5057C157.339 83.1828 157.186 82.8904 156.904 82.6589C156.464 82.2934 155.766 82.1107 155.136 82.1959C154.646 82.263 154.163 82.4274 153.691 82.5858C153.177 82.7625 152.645 82.9391 152.088 83.0001C151.109 83.1036 150.087 82.799 149.316 82.1899C148.765 83.061 147.645 83.5544 146.623 83.3595C145.925 83.2255 145.276 82.7625 144.891 82.1168C144.646 81.7086 144.107 81.5685 143.661 81.8C142.877 82.1959 142.057 82.5615 141.231 82.8782C141.188 82.8965 141.139 82.8904 141.096 82.866C141.054 82.8417 141.029 82.8051 141.023 82.7564C140.992 82.5615 140.986 82.3604 141.011 82.1594C141.029 81.9888 140.962 81.8244 140.839 81.7269C140.723 81.6355 140.582 81.6111 140.442 81.6599C140.184 81.7452 139.878 81.8731 139.511 82.1411L139.377 82.2447C138.752 82.7198 138.238 83.0732 137.883 83.0244C137.779 83.0062 137.688 82.9574 137.626 82.8721C137.504 82.7077 137.461 82.4883 137.492 82.1959C137.59 81.1786 138.428 80.2649 139.432 80.0699C139.511 80.0516 139.597 80.1065 139.609 80.1918C139.628 80.277 139.572 80.3562 139.487 80.3684C138.606 80.539 137.877 81.337 137.792 82.2264C137.773 82.4396 137.798 82.5919 137.871 82.6894C137.883 82.7077 137.896 82.7137 137.926 82.7198C138.183 82.7564 138.814 82.2812 139.193 82.001L139.334 81.8975C139.732 81.599 140.074 81.4649 140.35 81.3675C140.588 81.2883 140.839 81.3309 141.035 81.4893C141.243 81.6538 141.353 81.9218 141.323 82.1959C141.311 82.3056 141.311 82.4153 141.317 82.5249C142.069 82.2325 142.81 81.8975 143.532 81.5319C144.12 81.2334 144.842 81.4223 145.166 81.9645C145.509 82.531 146.078 82.9452 146.69 83.061C147.645 83.2437 148.697 82.7381 149.144 81.8853C149.169 81.8426 149.205 81.8122 149.254 81.8061C149.297 81.8 149.346 81.8122 149.383 81.8426C150.105 82.4823 151.103 82.799 152.057 82.7016C152.577 82.6467 153.098 82.4701 153.593 82.2995C154.077 82.135 154.573 81.9645 155.093 81.8975C155.809 81.8 156.592 82.0071 157.1 82.4274C157.351 82.6346 157.522 82.8843 157.602 83.1584C158.575 82.0558 159.738 80.9715 161.194 81.0263C161.347 81.0324 161.562 81.0568 161.696 81.2213C161.831 81.3857 161.819 81.599 161.794 81.7817L161.623 83.0671C162.369 82.6528 163.037 82.0863 163.563 81.4101C163.863 81.0263 164.157 80.74 164.426 80.5694C164.946 80.2405 165.313 80.3684 165.527 80.5329C165.766 80.7156 165.852 80.9898 165.937 81.2578C165.962 81.337 165.986 81.4162 166.017 81.4893C166.09 81.6721 166.237 81.8365 166.378 81.8914C166.445 81.9218 166.513 81.9218 166.574 81.8914C166.653 81.8548 166.739 81.8914 166.776 81.9645C166.813 82.0437 166.776 82.1289 166.702 82.1655C166.568 82.2264 166.415 82.2325 166.268 82.1716C166.048 82.0863 165.84 81.8609 165.736 81.599C165.705 81.5198 165.674 81.4345 165.65 81.3492C165.576 81.1177 165.503 80.8984 165.344 80.7705C165.142 80.6121 164.897 80.6304 164.597 80.8253C164.359 80.9776 164.083 81.2456 163.808 81.599C163.196 82.3848 162.4 83.0305 161.507 83.4752C161.451 83.4996 161.396 83.4935 161.347 83.463C161.299 83.4326 161.274 83.3778 161.286 83.3168L161.494 81.7391C161.513 81.6172 161.525 81.4832 161.464 81.4101C161.421 81.3553 161.329 81.3309 161.182 81.3248C161.152 81.3248 161.121 81.3248 161.09 81.3248C159.695 81.3248 158.569 82.4944 157.62 83.591C157.596 83.6275 157.553 83.6458 157.51 83.6458Z" fill="#7CB4F7"/>
<path d="M192.388 83.6208C191.776 83.6208 191.256 83.1274 190.981 82.6644C190.846 82.4451 190.742 82.2075 190.638 81.9821C190.509 81.7019 190.387 81.4339 190.222 81.1902C189.542 81.775 188.735 82.2319 187.878 82.4999C187.829 82.5182 187.768 82.506 187.731 82.4695C187.688 82.4329 187.67 82.3781 187.682 82.3233C187.731 82.0918 187.762 81.8542 187.774 81.6166C187.798 81.2146 187.615 80.8308 187.29 80.5993C186.966 80.3678 186.568 80.313 186.195 80.4592L184.432 81.1354C184.151 81.245 183.3 81.5679 182.841 81.0501C182.786 80.9892 182.737 80.9161 182.694 80.843C182.633 80.7394 182.578 80.648 182.498 80.6115C182.358 80.5445 182.168 80.648 181.99 80.7516C180.87 81.44 179.72 82.1101 178.575 82.7375C178.123 82.9873 177.706 83.1944 177.241 83.1944C176.807 83.2005 176.384 82.9934 176.072 82.634C175.846 82.372 175.717 82.0613 175.687 81.7507C174.934 82.3476 174.163 82.8411 173.275 82.8411C173.269 82.8411 173.263 82.8411 173.263 82.8411C172.969 82.8411 172.743 82.7741 172.566 82.6522C172.168 82.3659 172.113 81.8055 172.266 81.3912C172.419 80.9831 172.737 80.6663 173.018 80.3922C173.08 80.3313 173.171 80.3313 173.233 80.3922C173.294 80.4531 173.288 80.5506 173.233 80.6054C172.976 80.8552 172.682 81.1415 172.553 81.4948C172.443 81.7872 172.474 82.2075 172.743 82.3964C172.865 82.4878 173.037 82.5304 173.263 82.5304C173.269 82.5304 173.269 82.5304 173.275 82.5304C174.169 82.5304 174.958 81.9456 175.76 81.2999C175.809 81.2572 175.876 81.2511 175.932 81.2877C175.987 81.3181 176.017 81.3851 176.005 81.4461C175.95 81.7811 176.06 82.1405 176.311 82.4329C176.562 82.7253 176.892 82.8898 177.235 82.8898C177.241 82.8898 177.241 82.8898 177.247 82.8898C177.645 82.8837 178.025 82.6949 178.441 82.4695C179.579 81.842 180.724 81.178 181.843 80.4958C182.003 80.3983 182.333 80.1912 182.639 80.3374C182.798 80.4166 182.89 80.5567 182.963 80.6846C183 80.7394 183.037 80.8003 183.08 80.8491C183.3 81.0927 183.71 81.0927 184.334 80.8552L186.097 80.179C186.562 80.0023 187.082 80.0693 187.486 80.3617C187.896 80.6602 188.123 81.1354 188.098 81.641C188.092 81.8055 188.074 81.97 188.049 82.1344C188.826 81.8542 189.555 81.4156 190.167 80.8613C190.197 80.8308 190.246 80.8186 190.283 80.8247C190.326 80.8308 190.363 80.8491 190.393 80.8795C190.632 81.178 190.791 81.5253 190.944 81.8664C191.042 82.0857 191.146 82.3172 191.274 82.5182C191.562 82.9934 192.088 83.4259 192.609 83.3101C193.012 83.2188 193.276 82.8472 193.557 82.4573C193.857 82.037 194.169 81.5984 194.695 81.4826C195.216 81.3669 195.669 81.6288 196.109 81.8786C196.268 81.9639 196.427 82.0552 196.587 82.1283C197.523 82.5426 198.533 82.2928 199.604 82.037C200.436 81.8359 201.299 81.6227 202.15 81.7385C202.235 81.7507 202.29 81.8238 202.278 81.909C202.266 81.9943 202.192 82.0552 202.107 82.037C201.311 81.9334 200.479 82.1344 199.671 82.3294C198.594 82.5913 197.486 82.8594 196.458 82.4025C196.287 82.3294 196.121 82.2319 195.956 82.1405C195.546 81.909 195.154 81.6897 194.757 81.7811C194.353 81.8725 194.083 82.2441 193.808 82.634C193.508 83.0543 193.196 83.4929 192.676 83.6086C192.56 83.6147 192.474 83.6208 192.388 83.6208Z" fill="#7CB4F7"/>
<path d="M141.28 89.6504C141.249 89.6504 141.219 89.6444 141.194 89.6261C141.145 89.5956 141.121 89.5408 141.127 89.486C141.158 89.1692 141.225 88.8524 141.341 88.5539C140.411 89.224 139.205 89.4921 138.073 89.2423C137.877 89.1997 137.657 89.1326 137.479 88.9803C137.069 88.6209 137.131 87.9447 137.455 87.5427C137.755 87.1589 138.22 86.964 138.667 86.7873C138.746 86.7568 138.832 86.7995 138.863 86.8726C138.893 86.9518 138.856 87.037 138.777 87.0675C138.355 87.232 137.951 87.4026 137.694 87.7254C137.467 88.0117 137.406 88.5052 137.681 88.7489C137.804 88.8585 137.981 88.9072 138.14 88.9438C139.42 89.2301 140.87 88.761 141.739 87.7863C141.794 87.7254 141.886 87.7193 141.947 87.7681C142.008 87.8168 142.027 87.9082 141.978 87.9752C141.721 88.3529 141.549 88.7793 141.47 89.2301L145.466 87.1284C145.533 87.0919 145.613 87.1102 145.662 87.1711C145.705 87.232 145.699 87.3173 145.65 87.366C145.582 87.433 145.595 87.5183 145.613 87.5792C145.656 87.7193 145.784 87.8351 145.919 87.8594C146.2 87.9082 146.494 87.7315 146.745 87.5549L146.788 87.5244C147.057 87.3295 147.369 87.1102 147.737 87.0919C147.963 87.0797 148.177 87.1528 148.385 87.2198C150.393 87.896 152.541 88.1336 154.622 87.9204C154.946 87.8838 155.276 87.8412 155.607 87.7985C156.868 87.628 158.177 87.4513 159.401 87.8716C159.481 87.9021 159.524 87.9874 159.493 88.0666C159.469 88.1458 159.377 88.1884 159.297 88.1579C158.147 87.762 156.874 87.9325 155.65 88.097C155.319 88.1397 154.989 88.1884 154.658 88.2189C152.535 88.4382 150.344 88.1945 148.318 87.5122C148.104 87.4391 147.932 87.3782 147.755 87.3904C147.48 87.4026 147.223 87.5853 146.972 87.7681L146.923 87.7985C146.623 88.0117 146.262 88.225 145.864 88.1579C145.625 88.1153 145.399 87.9143 145.319 87.6706C145.307 87.634 145.295 87.5914 145.295 87.5549L141.353 89.6261C141.329 89.6444 141.304 89.6504 141.28 89.6504Z" fill="#7CB4F7"/>
<path d="M165.993 89.27C165.962 89.27 165.925 89.2578 165.901 89.2395C165.864 89.2091 165.84 89.1664 165.84 89.1177L165.827 88.21C165.827 88.1247 165.895 88.0577 165.98 88.0577C166.066 88.0577 166.133 88.1247 166.133 88.21L166.14 88.9167C167.388 88.5329 168.514 87.8384 169.414 86.9003C169.438 86.8698 169.481 86.8516 169.518 86.8516C169.561 86.8577 169.597 86.8637 169.628 86.8942C169.812 87.0648 169.86 87.3206 169.897 87.5399C169.94 87.7592 169.977 87.9481 170.118 88.0273C170.215 88.0821 170.356 88.0699 170.491 88.0516C171.366 87.942 172.211 87.6983 173.012 87.3389C173.722 87.016 174.701 86.5774 175.381 87.1379C175.424 87.1744 175.466 87.211 175.503 87.2536C175.57 87.3206 175.638 87.3876 175.711 87.4181C175.791 87.4546 175.895 87.4607 176.005 87.4607C176.072 87.4607 176.133 87.4668 176.201 87.4729C176.427 87.5034 176.629 87.6008 176.819 87.6983C176.923 87.747 177.027 87.8019 177.131 87.8384C177.388 87.9298 177.706 87.9054 177.804 87.7105C177.841 87.6374 177.933 87.6069 178.006 87.6435C178.08 87.68 178.11 87.7714 178.074 87.8445C177.89 88.21 177.394 88.2648 177.021 88.1247C176.905 88.0821 176.788 88.0273 176.672 87.9663C176.495 87.875 176.329 87.7958 176.152 87.7714C176.097 87.7653 176.042 87.7653 175.987 87.7592C175.858 87.7531 175.717 87.747 175.583 87.6861C175.46 87.6313 175.368 87.5399 175.289 87.4607C175.252 87.4303 175.222 87.3937 175.185 87.3633C174.652 86.9247 173.814 87.3023 173.141 87.6069C172.315 87.9785 171.433 88.2283 170.534 88.344C170.356 88.3684 170.154 88.3806 169.971 88.2831C169.701 88.1369 169.646 87.8445 169.597 87.5887C169.573 87.4607 169.548 87.3328 169.499 87.2353C168.539 88.1978 167.339 88.8984 166.023 89.2639C166.017 89.27 166.005 89.27 165.993 89.27Z" fill="#7CB4F7"/>
<path d="M185.968 88.8375C185.919 88.8375 185.864 88.8314 185.809 88.8253C185.62 88.7887 185.442 88.6486 185.356 88.472C185.283 88.3257 185.283 88.1735 185.356 88.0394C185.393 87.9663 185.485 87.9359 185.564 87.9724C185.638 88.009 185.668 88.1004 185.632 88.1795C185.601 88.2344 185.62 88.2953 185.638 88.3379C185.681 88.4293 185.779 88.5024 185.87 88.5207C186.072 88.5633 186.293 88.4659 186.501 88.3501C187.26 87.942 187.939 87.412 188.508 86.7662C188.557 86.7175 188.631 86.6992 188.692 86.7297C188.979 86.8698 189.028 87.1744 189.071 87.4424C189.096 87.5886 189.12 87.7348 189.175 87.8445C189.236 87.9663 189.334 88.0455 189.469 88.0821C189.824 88.1856 190.344 88.0151 190.711 87.814L192.915 86.6261C193.074 86.5408 193.318 86.4129 193.569 86.4677C193.771 86.5104 193.912 86.6566 194.035 86.7845C194.065 86.815 194.096 86.8515 194.132 86.882C194.855 87.5643 196.024 87.1805 197.064 86.8393L197.26 86.7784C199.169 86.1571 201.274 86.1449 203.19 86.7541C203.27 86.7784 203.312 86.8637 203.288 86.9429C203.263 87.0221 203.178 87.0647 203.098 87.0404C201.244 86.4556 199.206 86.4617 197.358 87.0647L197.162 87.1257C196.097 87.479 194.781 87.9115 193.924 87.1013C193.888 87.0647 193.851 87.0282 193.82 86.9977C193.716 86.8942 193.618 86.7906 193.508 86.7662C193.38 86.7419 193.227 86.8089 193.068 86.8942L190.864 88.0821C190.656 88.1917 189.94 88.539 189.389 88.3745C189.175 88.3075 189.016 88.1795 188.912 87.9846C188.833 87.8323 188.802 87.6556 188.777 87.4851C188.747 87.2962 188.722 87.1561 188.655 87.0708C188.08 87.6983 187.413 88.2161 186.66 88.6121C186.433 88.7339 186.207 88.8375 185.968 88.8375Z" fill="#7CB4F7"/>
<path d="M153.41 96.4245C153.385 96.4245 153.367 96.4184 153.343 96.4123C153.281 96.3818 153.245 96.3209 153.257 96.2539C153.392 95.3706 153.398 94.4812 153.269 93.604C152.877 93.9817 152.437 94.3655 151.892 94.5604C151.262 94.7858 150.399 94.7066 149.97 94.1035C149.934 94.0548 149.903 94 149.866 93.9451C149.695 93.6832 149.567 93.5065 149.414 93.5553C149.346 93.5736 149.285 93.6467 149.236 93.7076L147.443 95.7605C147.394 95.8153 147.314 95.8275 147.253 95.797C147.192 95.7605 147.161 95.6874 147.18 95.6204L147.516 94.4812C146.268 94.5056 145.007 94.4325 143.771 94.268C143.716 94.2619 143.667 94.2193 143.648 94.1645L143.465 93.6406C142.865 94.1401 142.18 94.6701 141.366 94.8833C140.558 95.0965 139.524 94.9198 139.003 94.1888C138.514 94.6213 137.779 94.7797 137.155 94.5726C137.088 94.5482 137.045 94.4812 137.051 94.4081C137.125 93.8477 137.651 93.3786 138.22 93.3725C138.318 93.3603 138.373 93.4395 138.373 93.5248C138.373 93.6101 138.306 93.6771 138.22 93.6771C137.847 93.6832 137.486 93.9695 137.375 94.3228C137.92 94.4508 138.532 94.2619 138.905 93.8477C138.936 93.8111 138.985 93.7929 139.034 93.7989C139.083 93.805 139.126 93.8355 139.15 93.8781C139.542 94.597 140.54 94.7858 141.274 94.5909C142.1 94.3716 142.804 93.7868 143.422 93.2629C143.459 93.2324 143.514 93.2202 143.563 93.2324C143.612 93.2446 143.648 93.2812 143.667 93.3299L143.887 93.9756C145.148 94.1401 146.427 94.2071 147.7 94.1705C147.749 94.1644 147.798 94.1888 147.828 94.2315C147.859 94.268 147.865 94.3228 147.853 94.3655L147.657 95.0295L148.985 93.5065C149.059 93.4213 149.156 93.3116 149.303 93.2629C149.683 93.141 149.928 93.5065 150.105 93.7807C150.136 93.8294 150.172 93.8781 150.203 93.9269C150.546 94.402 151.25 94.4629 151.77 94.2741C152.351 94.067 152.828 93.5918 153.251 93.1776C153.294 93.135 153.349 93.1228 153.404 93.141C153.459 93.1593 153.496 93.202 153.508 93.2629C153.655 94.1096 153.691 94.9686 153.6 95.8214L154.934 94.3594C155.228 94.0426 155.589 93.6467 156.078 93.5065C156.641 93.3421 157.204 93.5431 157.749 93.738C158.288 93.933 158.795 94.1096 159.267 93.9391C159.346 93.9086 159.432 93.9512 159.463 94.0304C159.493 94.1096 159.45 94.1949 159.371 94.2254C158.789 94.4325 158.208 94.2254 157.645 94.0243C157.125 93.8355 156.635 93.6649 156.164 93.7989C155.754 93.9208 155.442 94.2619 155.16 94.5665L153.496 96.3818C153.496 96.4062 153.453 96.4245 153.41 96.4245Z" fill="#7CB4F7"/>
<path d="M170.821 94.9718C170.766 94.9718 170.711 94.9657 170.656 94.9535C170.234 94.85 170.099 94.4358 169.983 94.0702C169.903 93.8266 169.83 93.589 169.683 93.4428C168.704 94.2286 167.443 94.6672 166.182 94.6672C166.097 94.6672 166.029 94.6002 166.029 94.5149C166.029 94.4297 166.097 94.3626 166.182 94.3626C166.188 94.3626 166.195 94.3626 166.195 94.3626C167.419 94.3626 168.649 93.9119 169.585 93.126C169.634 93.0834 169.714 93.0773 169.769 93.1138C170.056 93.3088 170.173 93.6621 170.27 93.9728C170.393 94.3566 170.485 94.5941 170.723 94.649C170.858 94.6794 171.011 94.6368 171.146 94.5881C171.715 94.3931 172.241 94.119 172.725 93.7596C172.878 93.6438 173.018 93.5403 173.19 93.4976C173.496 93.4184 173.783 93.5525 174.034 93.6743C174.083 93.6987 174.132 93.723 174.181 93.7413C175.056 94.1251 176.011 93.918 177.027 93.6986C177.939 93.5037 178.881 93.3027 179.781 93.5525C179.86 93.5768 179.909 93.6621 179.885 93.7413C179.86 93.8205 179.775 93.8692 179.695 93.8449C178.869 93.6134 177.963 93.8083 177.088 93.9911C176.072 94.2104 175.02 94.4297 174.059 94.0093C174.01 93.985 173.955 93.9606 173.906 93.9362C173.679 93.8327 173.471 93.7352 173.269 93.7778C173.159 93.8083 173.055 93.8814 172.945 93.9667C172.406 94.3627 171.849 94.6551 171.256 94.8622C171.115 94.9353 170.968 94.9718 170.821 94.9718Z" fill="#7CB4F7"/>
<path d="M136.139 107.945C135.894 107.945 135.662 107.902 135.448 107.811C135.209 107.713 135.038 107.573 134.94 107.396C134.603 106.793 135.209 106.16 135.833 105.806C135.907 105.764 135.999 105.788 136.041 105.861C136.084 105.934 136.06 106.026 135.986 106.068C135.582 106.3 134.964 106.812 135.209 107.25C135.289 107.39 135.448 107.482 135.564 107.53C136.213 107.798 137.039 107.579 138.024 106.872C138.71 106.379 139.352 105.819 139.934 105.216C139.964 105.185 140.007 105.167 140.05 105.167C140.093 105.167 140.136 105.191 140.16 105.222C140.362 105.465 140.344 105.782 140.325 106.062C140.307 106.312 140.295 106.55 140.429 106.696C140.552 106.824 140.772 106.854 141.09 106.793C142.014 106.617 142.859 106.123 143.679 105.642C144.022 105.441 144.377 105.234 144.738 105.051C144.842 104.996 144.958 104.941 145.087 104.941C145.478 104.941 145.589 105.313 145.68 105.611C145.742 105.813 145.809 106.026 145.937 106.129C146.109 106.269 146.335 106.196 146.684 106.056C146.892 105.971 147.106 105.886 147.327 105.873C147.676 105.849 147.988 106.026 148.281 106.19C148.349 106.227 148.416 106.263 148.483 106.3C148.771 106.446 149.181 106.544 149.389 106.324C149.45 106.263 149.548 106.263 149.603 106.318C149.665 106.379 149.665 106.47 149.609 106.531C149.279 106.873 148.74 106.769 148.343 106.562C148.275 106.525 148.202 106.489 148.135 106.446C147.865 106.294 147.614 106.148 147.345 106.172C147.174 106.184 146.978 106.257 146.794 106.33C146.452 106.464 146.066 106.617 145.742 106.355C145.54 106.19 145.46 105.922 145.387 105.691C145.289 105.374 145.234 105.234 145.087 105.234C145.026 105.234 144.952 105.27 144.879 105.307C144.524 105.49 144.175 105.691 143.832 105.892C142.994 106.385 142.125 106.891 141.145 107.08C140.717 107.165 140.399 107.098 140.203 106.891C139.977 106.653 139.995 106.318 140.013 106.032C140.025 105.861 140.032 105.697 140.001 105.563C139.444 106.123 138.838 106.641 138.202 107.104C137.437 107.671 136.745 107.945 136.139 107.945Z" fill="#7CB4F7"/>
<path d="M156.403 107.983C156.17 107.983 155.95 107.94 155.729 107.837C155.307 107.63 155.117 107.13 155.154 106.746C155.185 106.411 155.381 106.168 155.674 106.088C155.754 106.07 155.84 106.113 155.864 106.198C155.889 106.277 155.84 106.362 155.754 106.387C155.527 106.448 155.472 106.661 155.46 106.783C155.436 107.063 155.576 107.435 155.864 107.575C156.372 107.824 157.002 107.623 157.596 107.404L160.821 106.204C160.931 106.161 161.091 106.107 161.256 106.155C161.464 106.216 161.55 106.405 161.623 106.551C161.666 106.643 161.709 106.734 161.77 106.783C161.892 106.88 162.106 106.838 162.412 106.661L165.013 105.114C165.142 105.034 165.338 104.919 165.558 104.949C165.962 105.004 166.054 105.424 166.127 105.753C166.152 105.851 166.17 105.948 166.201 106.04C166.384 106.6 167.106 106.813 167.676 106.698C168.239 106.582 168.728 106.216 169.206 105.869L169.346 105.765C169.634 105.558 169.977 105.345 170.35 105.345C170.619 105.351 170.858 105.467 171.091 105.577L171.14 105.601C172.278 106.149 173.545 106.454 174.812 106.496C174.726 106.32 174.695 106.119 174.714 105.899C174.75 105.491 174.971 105.095 175.295 104.858C175.901 104.413 176.697 104.45 177.266 104.559C177.939 104.687 178.594 104.949 179.169 105.321C179.236 105.363 179.304 105.406 179.365 105.455C179.573 105.601 179.775 105.735 179.995 105.814C180.644 106.052 181.36 105.79 182.052 105.534C182.229 105.467 182.406 105.4 182.584 105.345C184.322 104.779 186.213 105.028 187.884 105.254L194.438 106.125C194.524 106.137 194.579 106.21 194.567 106.295C194.555 106.381 194.481 106.436 194.396 106.423L187.841 105.552C186.207 105.333 184.353 105.089 182.676 105.631C182.504 105.686 182.327 105.753 182.149 105.82C181.403 106.094 180.638 106.381 179.879 106.107C179.622 106.009 179.395 105.857 179.181 105.711C179.12 105.668 179.053 105.625 178.992 105.583C178.453 105.229 177.835 104.986 177.198 104.864C176.697 104.766 175.98 104.736 175.466 105.114C175.215 105.296 175.038 105.613 175.007 105.936C174.983 106.18 175.056 106.405 175.203 106.557C175.246 106.6 175.258 106.667 175.234 106.722C175.209 106.777 175.154 106.813 175.093 106.813C173.685 106.813 172.266 106.49 170.999 105.881L170.95 105.857C170.742 105.753 170.546 105.662 170.338 105.656C170.332 105.656 170.332 105.656 170.326 105.656C170.038 105.656 169.769 105.832 169.518 106.015L169.377 106.119C168.875 106.484 168.355 106.868 167.731 106.996C167.033 107.142 166.14 106.856 165.901 106.137C165.87 106.04 165.846 105.93 165.821 105.82C165.748 105.485 165.687 105.278 165.509 105.248C165.411 105.235 165.289 105.296 165.166 105.37L162.559 106.917C162.4 107.014 161.917 107.301 161.568 107.014C161.452 106.923 161.39 106.795 161.335 106.679C161.268 106.545 161.225 106.466 161.152 106.442C161.091 106.423 161.005 106.454 160.913 106.484L157.688 107.684C157.272 107.837 156.831 107.983 156.403 107.983Z" fill="#7CB4F7"/>
<path d="M201.684 106.851C201.544 106.851 201.403 106.826 201.274 106.747C201.109 106.65 201.005 106.455 201.011 106.254C201.017 106.095 201.097 105.961 201.225 105.901C201.299 105.864 201.391 105.894 201.434 105.968C201.47 106.041 201.44 106.132 201.366 106.175C201.336 106.187 201.317 106.223 201.317 106.266C201.317 106.351 201.36 106.443 201.427 106.485C201.58 106.577 201.807 106.546 202.015 106.504C203.172 106.284 204.322 105.992 205.442 105.651C206.005 105.48 206.666 105.474 206.844 105.986C206.862 106.047 206.874 106.108 206.886 106.175C206.899 106.248 206.905 106.315 206.935 106.357C206.99 106.437 207.143 106.437 207.272 106.437C208.924 106.394 210.552 106.114 212.119 105.596C212.199 105.572 212.284 105.614 212.315 105.693C212.339 105.773 212.297 105.858 212.217 105.888C210.62 106.412 208.961 106.705 207.278 106.747C207.07 106.753 206.831 106.735 206.691 106.546C206.611 106.443 206.599 106.327 206.58 106.229C206.574 106.181 206.568 106.138 206.556 106.095C206.421 105.693 205.626 105.925 205.534 105.949C204.402 106.296 203.239 106.589 202.07 106.814C201.948 106.833 201.813 106.851 201.684 106.851Z" fill="#7CB4F7"/>
<path d="M130.754 187.985C130.521 187.985 130.301 187.942 130.08 187.838C129.658 187.631 129.468 187.132 129.505 186.748C129.536 186.413 129.732 186.169 130.025 186.09C130.111 186.066 130.191 186.114 130.215 186.2C130.24 186.279 130.191 186.364 130.105 186.389C129.879 186.449 129.823 186.663 129.811 186.785C129.787 187.065 129.927 187.436 130.215 187.576C130.723 187.826 131.353 187.625 131.947 187.406L135.172 186.206C135.282 186.163 135.442 186.102 135.607 186.157C135.815 186.218 135.901 186.407 135.974 186.553C136.017 186.644 136.06 186.736 136.121 186.785C136.243 186.882 136.458 186.839 136.764 186.663L139.365 185.115C139.493 185.036 139.689 184.927 139.909 184.951C140.313 185.006 140.405 185.426 140.478 185.755C140.503 185.852 140.521 185.95 140.552 186.041C140.735 186.602 141.458 186.815 142.027 186.699C142.59 186.577 143.079 186.224 143.557 185.877L143.697 185.773C143.985 185.566 144.328 185.359 144.701 185.353C144.97 185.359 145.209 185.475 145.442 185.584L145.491 185.609C146.635 186.157 147.896 186.462 149.163 186.504C149.077 186.328 149.046 186.127 149.065 185.907C149.101 185.499 149.322 185.103 149.646 184.866C150.252 184.427 151.054 184.457 151.617 184.561C152.29 184.689 152.945 184.951 153.52 185.323C153.587 185.365 153.649 185.408 153.716 185.45C153.924 185.597 154.126 185.731 154.352 185.816C155.001 186.054 155.717 185.792 156.409 185.536C156.586 185.469 156.77 185.402 156.941 185.347C158.679 184.78 160.57 185.03 162.241 185.255L168.796 186.127C168.881 186.139 168.936 186.212 168.924 186.297C168.912 186.382 168.838 186.437 168.753 186.425L162.198 185.554C160.564 185.335 158.704 185.091 157.033 185.633C156.862 185.688 156.684 185.755 156.507 185.822C155.76 186.096 154.995 186.382 154.236 186.102C153.979 186.005 153.753 185.853 153.532 185.706C153.471 185.664 153.41 185.621 153.343 185.578C152.804 185.225 152.186 184.981 151.549 184.86C151.048 184.768 150.332 184.732 149.817 185.109C149.567 185.292 149.389 185.609 149.358 185.932C149.334 186.175 149.407 186.401 149.554 186.553C149.597 186.596 149.609 186.663 149.585 186.718C149.56 186.772 149.505 186.809 149.444 186.809C148.037 186.809 146.623 186.486 145.35 185.877L145.301 185.852C145.093 185.755 144.897 185.658 144.689 185.651C144.683 185.651 144.683 185.651 144.677 185.651C144.389 185.651 144.12 185.828 143.869 186.011L143.728 186.114C143.226 186.48 142.706 186.858 142.082 186.992C141.384 187.138 140.491 186.852 140.252 186.133C140.221 186.035 140.197 185.926 140.172 185.816C140.099 185.481 140.038 185.274 139.86 185.243C139.756 185.231 139.646 185.292 139.518 185.365L136.917 186.912C136.757 187.01 136.274 187.296 135.925 187.01C135.809 186.919 135.748 186.791 135.693 186.675C135.625 186.541 135.582 186.462 135.509 186.437C135.448 186.419 135.362 186.449 135.27 186.48L132.045 187.68C131.623 187.838 131.182 187.985 130.754 187.985Z" fill="#7CB4F7"/>
<path d="M176.036 186.851C175.895 186.851 175.754 186.826 175.619 186.747C175.454 186.65 175.35 186.455 175.356 186.254C175.362 186.095 175.442 185.961 175.57 185.901C175.65 185.864 175.736 185.894 175.778 185.968C175.815 186.041 175.785 186.132 175.711 186.175C175.681 186.187 175.662 186.223 175.662 186.266C175.662 186.351 175.705 186.443 175.772 186.485C175.931 186.577 176.146 186.546 176.36 186.504C177.51 186.284 178.667 185.992 179.787 185.651C180.35 185.48 181.011 185.474 181.189 185.986C181.207 186.047 181.219 186.108 181.231 186.175C181.244 186.248 181.25 186.315 181.28 186.357C181.335 186.437 181.488 186.443 181.617 186.437C183.269 186.394 184.897 186.114 186.464 185.596C186.544 185.572 186.629 185.614 186.66 185.693C186.684 185.773 186.642 185.858 186.562 185.888C184.965 186.412 183.306 186.705 181.623 186.747C181.409 186.753 181.176 186.735 181.036 186.546C180.956 186.443 180.944 186.327 180.925 186.229C180.919 186.181 180.913 186.138 180.901 186.095C180.766 185.693 179.971 185.925 179.879 185.949C178.747 186.296 177.584 186.589 176.415 186.808C176.305 186.833 176.17 186.851 176.036 186.851Z" fill="#7CB4F7"/>
<path d="M164.304 113.922C163.722 113.922 163.08 113.794 162.541 113.38C162.321 113.209 162.137 112.984 162.009 112.734C161.843 112.862 161.66 112.959 161.464 113.02C160.466 113.325 159.432 112.874 158.741 112.442C158.624 112.368 158.502 112.295 158.41 112.301C158.288 112.301 158.171 112.405 158.049 112.521L157.614 112.929C157.278 113.246 156.813 113.368 156.366 113.27C155.919 113.173 155.552 112.856 155.387 112.429L155.191 111.93C153.318 112.612 151.225 112.789 149.261 112.423C148.545 112.825 147.737 113.093 146.923 113.197C146.874 113.203 146.831 113.191 146.8 113.154C146.77 113.124 146.751 113.075 146.751 113.032C146.782 112.63 146.702 112.21 146.525 111.851C145.729 112.204 144.836 112.301 143.985 112.119L143.814 112.082C143.618 112.033 143.434 111.991 143.251 112.003C142.963 112.015 142.688 112.155 142.425 112.295L142.131 112.46C141.562 112.777 140.974 113.106 140.313 113.209C139.591 113.325 138.71 113.087 138.318 112.429C137.902 112.704 137.461 112.935 136.972 112.85C136.641 112.795 136.335 112.503 136.25 112.155C136.182 111.887 136.256 111.644 136.451 111.485C136.519 111.43 136.617 111.443 136.666 111.51C136.721 111.577 136.709 111.674 136.641 111.723C136.513 111.82 136.519 111.973 136.543 112.076C136.604 112.308 136.806 112.509 137.021 112.545C137.449 112.618 137.877 112.35 138.287 112.076C138.324 112.052 138.373 112.04 138.416 112.058C138.459 112.07 138.496 112.1 138.514 112.143C138.783 112.777 139.615 113.008 140.258 112.905C140.864 112.807 141.427 112.49 141.972 112.186L142.265 112.021C142.559 111.863 142.871 111.704 143.226 111.692C143.453 111.686 143.667 111.735 143.869 111.784L144.034 111.82C144.866 111.997 145.748 111.887 146.507 111.51C146.58 111.473 146.666 111.497 146.709 111.57C146.935 111.96 147.051 112.417 147.051 112.868C147.786 112.752 148.502 112.503 149.144 112.131C149.175 112.113 149.212 112.107 149.248 112.113C151.219 112.49 153.337 112.301 155.203 111.589C155.283 111.558 155.368 111.595 155.399 111.674L155.65 112.314C155.785 112.649 156.06 112.886 156.415 112.965C156.77 113.045 157.125 112.947 157.388 112.704L157.823 112.295C157.945 112.18 158.135 112.003 158.386 111.997C158.587 111.997 158.74 112.094 158.881 112.18C159.524 112.582 160.466 113.002 161.354 112.728C161.537 112.673 161.715 112.57 161.868 112.442C161.8 112.241 161.764 112.027 161.764 111.814C161.764 111.315 161.954 110.888 162.302 110.614C162.333 110.59 162.382 110.577 162.425 110.584C162.468 110.59 162.504 110.614 162.529 110.651C162.755 110.998 162.792 111.43 162.633 111.869C162.547 112.107 162.406 112.332 162.229 112.521C162.339 112.771 162.504 112.99 162.706 113.142C163.569 113.806 164.75 113.636 165.387 113.477C165.852 113.361 166.317 113.185 166.764 113.014C167.217 112.844 167.688 112.667 168.165 112.545C168.9 112.356 169.665 112.301 170.399 112.241C170.999 112.192 171.617 112.143 172.211 112.027C172.443 111.985 172.676 111.924 172.914 111.869C173.936 111.631 174.989 111.382 175.919 111.869C175.993 111.906 176.023 112.003 175.981 112.076C175.944 112.149 175.846 112.18 175.772 112.137C174.946 111.698 173.943 111.936 172.982 112.161C172.743 112.216 172.504 112.271 172.266 112.32C171.654 112.442 171.029 112.49 170.417 112.533C169.695 112.588 168.943 112.649 168.233 112.825C167.768 112.941 167.309 113.118 166.862 113.288C166.409 113.459 165.938 113.636 165.454 113.764C165.185 113.843 164.763 113.922 164.304 113.922ZM162.382 110.98C162.192 111.193 162.094 111.479 162.094 111.808C162.094 111.93 162.113 112.058 162.137 112.18C162.235 112.052 162.315 111.912 162.37 111.765C162.468 111.485 162.468 111.217 162.382 110.98Z" fill="#7CB4F7"/>
<path d="M186.905 113.391C186.727 113.391 186.544 113.379 186.36 113.355C186.317 113.349 186.281 113.324 186.256 113.294C186.232 113.257 186.225 113.221 186.232 113.178C186.281 112.91 186.262 112.624 186.183 112.362C184.579 113.032 182.768 113.208 181.06 112.849C181.011 112.837 180.968 112.806 180.95 112.758C180.932 112.709 180.938 112.654 180.968 112.618L181.433 111.941C181.482 111.874 181.574 111.856 181.648 111.899C181.715 111.947 181.733 112.039 181.684 112.112L181.348 112.599C182.976 112.892 184.695 112.691 186.207 112.021C186.244 112.002 186.287 112.002 186.329 112.021C186.372 112.039 186.397 112.069 186.415 112.106C186.538 112.41 186.587 112.752 186.556 113.08C187.915 113.215 189.206 112.514 190.46 111.838C190.822 111.643 191.189 111.442 191.556 111.265C191.746 111.174 191.972 111.076 192.211 111.143C192.468 111.216 192.602 111.442 192.725 111.643C192.755 111.692 192.786 111.746 192.817 111.795C193.306 112.52 194.414 112.502 195.265 112.362C195.552 112.313 195.816 112.27 196.079 112.325C196.287 112.368 196.464 112.459 196.642 112.557C196.703 112.587 196.764 112.618 196.819 112.648C197.835 113.135 199.157 112.971 200.864 112.148C201.685 111.752 202.621 111.375 203.349 111.874C203.417 111.923 203.435 112.014 203.386 112.088C203.337 112.155 203.245 112.173 203.172 112.124C202.578 111.716 201.74 112.063 200.999 112.423C199.206 113.288 197.792 113.452 196.691 112.922C196.629 112.892 196.562 112.861 196.501 112.825C196.336 112.739 196.183 112.66 196.017 112.624C195.809 112.581 195.583 112.618 195.344 112.66C193.967 112.886 193.019 112.642 192.56 111.966C192.523 111.911 192.492 111.856 192.456 111.801C192.358 111.637 192.266 111.478 192.125 111.436C191.997 111.399 191.837 111.466 191.691 111.539C191.33 111.716 190.962 111.911 190.607 112.106C189.426 112.733 188.214 113.391 186.905 113.391Z" fill="#7CB4F7"/>
<path d="M135.582 125.709C135.533 125.709 135.484 125.703 135.435 125.697C135.019 125.618 134.787 125.191 134.774 124.819C134.762 124.454 134.903 124.113 135.038 123.808C135.068 123.729 135.16 123.693 135.24 123.729C135.319 123.76 135.356 123.851 135.319 123.93C135.203 124.198 135.068 124.509 135.08 124.807C135.093 125.057 135.24 125.349 135.497 125.398C135.65 125.429 135.815 125.374 135.968 125.313C136.604 125.057 137.18 124.649 137.632 124.137C137.675 124.095 137.737 124.076 137.792 124.095C138.049 124.18 138.091 124.436 138.122 124.637C138.14 124.765 138.159 124.893 138.226 124.96C138.312 125.051 138.483 125.057 138.765 124.972C139.707 124.673 140.637 124.308 141.531 123.887C141.659 123.827 142.1 123.644 142.431 123.766C142.559 123.814 142.657 123.912 142.712 124.04C142.755 124.143 142.761 124.259 142.761 124.357C142.761 124.454 142.767 124.533 142.804 124.582C142.859 124.649 142.994 124.655 143.202 124.594L145.631 123.924C146.084 123.796 146.647 123.644 147.18 123.808C147.498 123.906 147.779 124.155 147.914 124.46C147.994 124.643 148.018 124.832 147.975 125.008C148.759 125.307 149.695 125.209 150.399 124.746C150.466 124.698 150.564 124.716 150.613 124.789C150.662 124.856 150.637 124.954 150.57 125.002C149.744 125.544 148.63 125.636 147.724 125.234C147.688 125.215 147.657 125.185 147.645 125.148C147.633 125.112 147.633 125.069 147.651 125.033C147.73 124.862 147.688 124.698 147.639 124.588C147.541 124.369 147.327 124.18 147.094 124.107C146.647 123.967 146.133 124.113 145.717 124.229L143.287 124.899C143.159 124.935 142.773 125.039 142.571 124.783C142.467 124.655 142.467 124.509 142.461 124.375C142.461 124.296 142.455 124.222 142.437 124.174C142.412 124.125 142.382 124.088 142.327 124.07C142.186 124.015 141.929 124.058 141.666 124.18C140.76 124.606 139.817 124.972 138.856 125.276C138.71 125.325 138.251 125.465 137.994 125.179C137.871 125.045 137.847 124.862 137.822 124.698C137.804 124.582 137.792 124.509 137.767 124.46C137.296 124.96 136.721 125.356 136.09 125.611C135.931 125.648 135.76 125.709 135.582 125.709Z" fill="#7CB4F7"/>
<path d="M157.4 126.947C156.917 126.947 156.745 126.673 156.684 126.497C156.562 126.131 156.702 125.613 156.99 125.138C156.537 125.315 156.048 125.406 155.564 125.406C154.891 125.4 154.377 125.156 154.144 124.742C153.985 124.456 154.028 124.06 154.242 123.78C154.414 123.554 154.665 123.457 154.915 123.518C154.995 123.536 155.05 123.621 155.026 123.701C155.007 123.78 154.928 123.835 154.842 123.81C154.671 123.768 154.548 123.889 154.487 123.963C154.365 124.121 154.297 124.389 154.414 124.596C154.665 125.047 155.307 125.102 155.57 125.108C155.583 125.108 155.595 125.108 155.607 125.108C156.243 125.108 156.874 124.925 157.412 124.596C157.59 124.407 157.798 124.255 158.006 124.145C158.073 124.109 158.159 124.127 158.202 124.194C158.245 124.255 158.239 124.34 158.184 124.395C158.006 124.566 157.81 124.712 157.602 124.846C157.131 125.345 156.855 126.046 156.978 126.417C157.045 126.625 157.253 126.704 157.59 126.649C158.851 126.198 159.634 125.577 160.619 124.791C160.833 124.62 161.054 124.444 161.292 124.261C161.348 124.218 161.421 124.218 161.476 124.255C161.531 124.291 161.556 124.365 161.531 124.425L161.207 125.418C162.688 125.309 164.144 124.761 165.319 123.865C165.326 123.859 165.332 123.853 165.344 123.847C165.411 123.798 165.509 123.81 165.558 123.877C165.607 123.944 165.595 124.042 165.528 124.09C165.521 124.097 165.515 124.103 165.503 124.109C165.087 124.432 164.787 124.888 164.658 125.394L168.508 124.505C168.636 124.474 168.887 124.419 169.071 124.559C169.218 124.669 169.255 124.846 169.285 124.986C169.291 125.022 169.297 125.059 169.31 125.096C169.493 125.772 170.552 125.796 170.993 125.772C172.29 125.705 172.657 125.565 173.275 125.321C173.63 125.181 174.071 125.01 174.805 124.803C174.983 124.791 175.093 124.834 175.16 124.919C175.289 125.083 175.209 125.333 175.124 125.595C175.069 125.772 174.983 126.04 175.05 126.107C175.069 126.125 175.203 126.216 175.827 126.015L179.12 124.084C179.444 123.895 179.842 123.658 180.289 123.682C180.864 123.713 181.311 124.17 181.635 124.559L181.697 124.639C181.99 124.998 182.29 125.364 182.7 125.492C182.933 125.565 183.227 125.498 183.416 125.339C183.508 125.266 183.606 125.138 183.588 124.962C183.582 124.888 183.618 124.821 183.686 124.797C183.753 124.773 183.826 124.797 183.869 124.858C184.126 125.272 184.512 125.601 184.965 125.79C185.271 125.735 185.424 125.394 185.589 125.01C185.766 124.614 185.962 124.164 186.397 124.017C186.69 123.92 186.996 123.999 187.266 124.066C191.244 125.108 195.564 124.645 199.383 124.231C199.475 124.218 199.542 124.285 199.555 124.365C199.561 124.45 199.506 124.523 199.42 124.535C195.577 124.949 191.225 125.418 187.205 124.365C186.954 124.298 186.709 124.237 186.501 124.304C186.195 124.407 186.042 124.761 185.877 125.126C185.687 125.552 185.479 126.04 184.965 126.095C184.934 126.095 184.916 126.095 184.891 126.082C184.481 125.918 184.114 125.65 183.826 125.309C183.777 125.4 183.71 125.485 183.618 125.565C183.349 125.79 182.945 125.875 182.615 125.772C182.113 125.619 181.77 125.193 181.464 124.821L181.403 124.742C181.103 124.377 180.736 123.999 180.277 123.975C179.916 123.944 179.567 124.164 179.279 124.334L175.95 126.283C175.344 126.484 175.007 126.485 174.83 126.314C174.628 126.113 174.732 125.784 174.824 125.492C174.861 125.37 174.934 125.144 174.903 125.089C174.903 125.089 174.891 125.083 174.854 125.083C174.848 125.083 174.842 125.083 174.842 125.083C174.157 125.278 173.722 125.449 173.373 125.583C172.749 125.827 172.339 125.991 170.993 126.058C169.897 126.113 169.169 125.784 168.998 125.156C168.985 125.114 168.979 125.071 168.967 125.029C168.942 124.925 168.924 124.828 168.869 124.785C168.802 124.736 168.673 124.761 168.557 124.785L164.475 125.723C164.426 125.735 164.371 125.723 164.334 125.686C164.297 125.65 164.279 125.601 164.285 125.552C164.334 125.242 164.432 124.943 164.585 124.675C163.483 125.297 162.235 125.662 160.968 125.717C160.919 125.717 160.87 125.699 160.84 125.656C160.809 125.613 160.803 125.565 160.815 125.516L161.054 124.785C160.962 124.858 160.87 124.931 160.778 125.004C159.769 125.808 158.967 126.442 157.633 126.923C157.572 126.935 157.48 126.947 157.4 126.947Z" fill="#7CB4F7"/>
</svg>